Patient4_TMGait_0pt3_01_left_18_GRF.mot
version=1
nRows=32
nColumns=19
inDegrees=no
endheader
time	F1x	F1y	F1z	M1x	M1y	M1z	F2x	F2y	F2z	M2x	M2y	M2z	EC1x	EC1y	EC1z	EC2x	EC2y	EC2z
33.46	6.6818	3.9522	-0.72152	-1.6183	0.80438	8.6028	-28.8627	726.0684	-36.3044	243.2509	49.863	754.4909	-0.0592	0.0182	-0.0073	-0.0462	0.0165	0.9585
33.4799	4.5209	2.9025	-0.39716	-1.1941	0.42515	6.1315	-27.6815	742.0805	-37.1774	248.4304	50.5312	769.011	-0.0592	0.0182	-0.0073	-0.0462	0.0165	0.9585
33.4999	2.6768	2.0176	-0.13484	-0.83129	0.12272	4.0282	-26.8098	762.9908	-38.2686	255.2326	51.4185	787.9767	-0.0592	0.0182	-0.0073	-0.0462	0.0165	0.9585
33.5198	1.2628	1.351	0.059765	-0.55496	-0.09829	2.4239	-26.2384	787.9579	-39.5782	263.3579	52.5012	810.5791	-0.0592	0.0182	-0.0073	-0.0462	0.0165	0.9585
33.5397	0.27572	0.89105	0.19217	-0.36211	-0.24681	1.3116	-25.8282	815.0273	-41.0397	272.1267	53.6622	834.9033	-0.0592	0.0182	-0.0073	-0.0462	0.0165	0.9585
33.5596	-0.3487	0.58848	0.27386	-0.23329	-0.33843	0.59771	-25.3619	841.3258	-42.5291	280.5528	54.7118	858.1277	-0.0592	0.0182	-0.0073	-0.0462	0.0165	0.9585
33.5796	-0.69889	0.37142	0.31822	-0.13998	-0.39118	0.15113	-24.6156	863.4832	-43.9039	287.4865	55.4455	876.9573	-0.0592	0.0182	-0.0073	-0.0462	0.0165	0.9585
33.5995	-0.86198	0.15527	0.33559	-0.048677	-0.42026	-0.16665	-23.4133	878.2776	-45.0417	291.838	55.6944	888.2689	-0.0592	0.0182	-0.0073	-0.0462	0.0165	0.9585
33.6194	-0.90982	-0.14707	0.33436	0.075197	-0.43606	-0.49568	-21.6403	883.4133	-45.8464	292.843	55.3386	889.8707	-0.0592	0.0182	-0.0073	-0.0462	0.0165	0.9585
33.6394	-0.89671	-0.61451	0.32104	0.26454	-0.44329	-0.96203	-19.2777	878.075	-46.2488	290.2462	54.3212	881.0422	-0.0592	0.0182	-0.0073	-0.0462	0.0165	0.9585
33.6593	-0.85721	-1.3106	0.30026	0.54588	-0.44306	-1.6599	-16.3966	863.0886	-46.2156	284.3564	52.6571	862.6733	-0.0592	0.0182	-0.0073	-0.0462	0.0165	0.9585
33.6792	-0.80542	-2.2693	0.27218	0.93293	-0.43076	-2.6427	-13.098	840.6986	-45.7499	275.9727	50.4127	837.016	-0.0592	0.0182	-0.0073	-0.0462	0.0165	0.9585
33.6991	-0.73747	-3.4736	0.23071	1.4168	-0.3928	-3.9049	-9.4782	814.0303	-44.8663	266.1982	47.6662	807.1394	-0.0592	0.0182	-0.0073	-0.0462	0.0165	0.9585
33.7191	-0.63386	-4.8111	0.16749	1.9489	-0.30925	-5.3305	-5.6154	786.3966	-43.6099	256.1929	44.5212	776.2553	-0.0592	0.0182	-0.0073	-0.0462	0.0165	0.9585
33.739	-0.46322	-6.0287	0.074292	2.4239	-0.15641	-6.6515	-1.5826	760.7125	-42.0777	246.9675	41.1285	747.1648	-0.0592	0.0182	-0.0073	-0.0462	0.0165	0.9585
33.7589	-0.18504	-6.689	-0.055677	2.6637	0.090676	-7.3928	2.5483	739.1262	-40.3929	239.2602	37.6496	721.9198	-0.0592	0.0182	-0.0073	-0.0462	0.0165	0.9585
33.7789	0.24771	-6.1304	-0.22376	2.3993	0.45283	-6.83	6.7137	722.8351	-38.687	233.4728	34.2348	701.6575	-0.0592	0.0182	-0.0073	-0.0462	0.0165	0.9585
33.7988	0.87792	-3.4476	-0.41987	1.2617	0.9329	-3.9666	10.8552	712.053	-37.1118	229.6577	31.0375	686.5808	-0.0592	0.0182	-0.0073	-0.0462	0.0165	0.9585
33.8187	1.7263	2.4865	-0.61705	-1.2072	1.5029	2.4468	14.8772	706.085	-35.8294	227.5486	28.2227	676.0652	-0.0592	0.0182	-0.0073	-0.0462	0.0165	0.9585
33.8386	2.7702	12.9108	-0.76498	-5.5076	2.0894	13.7866	18.6222	703.4806	-34.9746	226.6198	25.9448	668.8261	-0.0592	0.0182	-0.0073	-0.0462	0.0165	0.9585
33.8586	3.912	28.9477	-0.77727	-12.0898	2.5518	31.3112	21.8595	702.233	-34.6077	226.1589	24.3113	663.1151	-0.0592	0.0182	-0.0073	-0.0462	0.0165	0.9585
33.8785	4.9391	51.2174	-0.52922	-21.1925	2.6651	55.7432	24.2975	700.0392	-34.6996	225.3586	23.3733	656.9617	-0.0592	0.0182	-0.0073	-0.0462	0.0165	0.9585
33.8984	5.4642	79.2728	0.14094	-32.6106	2.0941	86.6407	25.6344	694.655	-35.1503	223.4398	23.1281	648.4677	-0.0592	0.0182	-0.0073	-0.0462	0.0165	0.9585
33.9184	4.9316	110.9769	1.4008	-45.4412	0.43441	121.7036	25.6544	684.3569	-35.8119	219.812	23.5103	636.1785	-0.0592	0.0182	-0.0073	-0.0462	0.0165	0.9585
33.9383	3.1411	142.5166	3.3115	-58.1114	-2.4433	156.7708	24.3328	668.4382	-36.5236	214.242	24.3899	619.4857	-0.0592	0.0182	-0.0073	-0.0462	0.0165	0.9585
33.9582	0.37934	170.9329	5.6984	-69.4167	-6.2143	188.557	21.9438	647.5045	-37.1639	206.9527	25.579	598.8553	-0.0592	0.0182	-0.0073	-0.0462	0.0165	0.9585
33.9781	-3.1387	196.3933	8.3396	-79.432	-10.5481	217.1943	19.043	623.0982	-37.6587	198.4938	26.8365	575.4905	-0.0592	0.0182	-0.0073	-0.0462	0.0165	0.9585
33.9981	-7.2337	220.9011	11.1124	-88.9885	-15.2468	244.8265	16.2622	596.7943	-37.9208	189.4375	27.877	550.5893	-0.0592	0.0182	-0.0073	-0.0462	0.0165	0.9585
34.018	-11.6278	246.3488	13.9426	-98.8786	-20.1299	273.4333	14.0625	569.5652	-37.8434	180.1575	28.4503	524.8527	-0.0592	0.0182	-0.0073	-0.0462	0.0165	0.9585
34.0379	-15.9553	273.6146	16.7634	-109.4805	-24.9849	303.8498	12.6116	541.6418	-37.3584	170.7718	28.4386	498.3983	-0.0592	0.0182	-0.0073	-0.0462	0.0165	0.9585
34.0579	-19.7896	302.5431	19.5131	-120.7446	-29.5732	335.7609	11.8108	512.7864	-36.4747	161.2266	27.8819	471.0027	-0.0592	0.0182	-0.0073	-0.0462	0.0165	0.9585
34.0778	-22.7483	332.2364	22.1574	-132.3126	-33.7015	368.0377	11.4227	482.7042	-35.2606	151.4325	26.918	442.4417	-0.0592	0.0182	-0.0073	-0.0462	0.0165	0.9585
